# Blender 4.4.3
# www.blender.org
mtllib minilapin.mtl
o Cube
v 1.034142 0.973103 0.232329
v 0.807060 -0.821097 0.856371
v -0.964670 1.042013 0.232331
v -0.851810 -0.763906 0.856373
v 1.033543 0.955726 -0.297881
v 0.805184 -0.875466 -0.802592
v -0.965270 1.024636 -0.297880
v -0.853686 -0.818276 -0.802591
v -0.462894 -0.831749 -0.802591
v -0.493796 1.025779 0.232331
v -0.494395 1.008402 -0.297880
v -0.461019 -0.777379 0.856372
v 0.678855 0.967954 -0.297881
v 0.512695 -0.810948 0.856372
v 0.510819 -0.865318 -0.802592
v 0.679455 0.985331 0.232330
v -0.924079 2.219412 0.193698
v -0.924678 2.202035 -0.336513
v -0.453205 2.203178 0.193697
v 0.719447 2.145353 -0.336514
v 1.074134 2.133125 -0.336515
v 1.074734 2.150502 0.193696
v -0.453804 2.185801 -0.336513
v 0.720046 2.162730 0.193697
v 1.119235 -0.001785 1.121578
v -1.126333 0.002029 -1.121578
v -1.123796 0.075545 1.121580
v 1.116698 -0.075300 -1.121580
v -0.595390 0.057328 1.121579
v -0.597926 -0.016188 -1.121578
v 0.721211 0.011938 1.121578
v 0.718674 -0.061578 -1.121579
vn -0.0011 -0.0328 -0.9995
vn -0.9873 0.1588 -0.0041
vn 0.0215 0.6251 -0.7803
vn -0.0344 -0.9989 0.0328
vn 0.0233 0.6748 0.7376
vn 0.9965 0.0835 -0.0039
vn 0.0344 0.9989 -0.0328
vn -0.9994 0.0345 -0.0000
vn 0.0011 0.0328 0.9995
vn 0.9994 -0.0345 -0.0000
vn -0.0126 -0.3660 -0.9305
vn -0.0105 -0.3043 0.9525
vn 0.9333 -0.3591 0.0107
vn -0.9502 -0.3114 0.0113
vt 0.625000 0.250000
vt 0.625000 0.205638
vt 0.500000 0.750000
vt 0.625000 0.750000
vt 0.625000 1.000000
vt 0.500000 1.000000
vt 0.500000 0.205638
vt 0.500000 0.250000
vt 0.125000 0.691106
vt 0.375000 0.691106
vt 0.375000 0.750000
vt 0.125000 0.750000
vt 0.500000 0.691106
vt 0.625000 0.691106
vt 0.625000 0.500000
vt 0.500000 0.500000
vt 0.500000 0.544362
vt 0.625000 0.544362
vt 0.125000 0.544362
vt 0.375000 0.544362
vt 0.500000 0.000000
vt 0.625000 0.000000
vt 0.625000 0.058894
vt 0.500000 0.058894
vt 0.875000 0.544362
vt 0.875000 0.691106
vt 0.125000 0.500000
vt 0.375000 0.500000
vt 0.875000 0.750000
vt 0.875000 0.500000
vt 0.375000 0.058894
vt 0.375000 0.205638
vt 0.375000 0.000000
vt 0.375000 0.250000
vt 0.375000 1.000000
s 0
usemtl Material
f 5/1/1 13/2/1 20/2/1 21/1/1
f 27/3/2 3/4/2 7/5/2 26/6/2
f 32/7/3 13/2/3 5/1/3 28/8/3
f 9/9/4 12/10/4 4/11/4 8/12/4
f 29/13/5 10/14/5 3/4/5 27/3/5
f 28/8/6 5/1/6 1/15/6 25/16/6
f 31/17/5 16/18/5 10/14/5 29/13/5
f 15/19/4 14/20/4 12/10/4 9/9/4
f 26/21/3 7/22/3 11/23/3 30/24/3
f 16/18/7 13/25/7 11/26/7 10/14/7
f 13/25/8 16/18/8 24/18/8 20/25/8
f 6/27/4 2/28/4 14/20/4 15/19/4
f 25/16/5 1/15/5 16/18/5 31/17/5
f 30/24/3 11/23/3 13/2/3 32/7/3
f 19/14/7 23/26/7 18/29/7 17/4/7
f 22/15/7 21/30/7 20/25/7 24/18/7
f 3/4/9 10/14/9 19/14/9 17/4/9
f 11/23/1 7/22/1 18/22/1 23/23/1
f 16/18/9 1/15/9 22/15/9 24/18/9
f 1/15/10 5/1/10 21/1/10 22/15/10
f 10/14/10 11/26/10 23/26/10 19/14/10
f 7/5/8 3/4/8 17/4/8 18/5/8
f 9/31/11 30/24/11 32/7/11 15/32/11
f 2/28/12 25/16/12 31/17/12 14/20/12
f 8/33/11 26/21/11 30/24/11 9/31/11
f 14/20/12 31/17/12 29/13/12 12/10/12
f 6/34/13 28/8/13 25/16/13 2/28/13
f 12/10/12 29/13/12 27/3/12 4/11/12
f 15/32/11 32/7/11 28/8/11 6/34/11
f 4/11/14 27/3/14 26/6/14 8/35/14
